<?xml version="1.0" encoding="UTF-8"?>
<svg width="32px" height="32px" viewBox="0 0 32 32" version="1.1" xmlns="http://www.w3.org/2000/svg" xmlns:xlink="http://www.w3.org/1999/xlink">
    <!-- Generator: Sketch 50.2 (55047) - http://www.bohemiancoding.com/sketch -->
    <title>horno</title>
    <desc>Created with Sketch.</desc>
    <defs></defs>
    <g id="Page-1" stroke="none" stroke-width="1" fill="none" fill-rule="evenodd">
        <g id="03_01productpage" transform="translate(-798.000000, -203.000000)" fill="#A2A1A0">
            <g id="horno" transform="translate(798.000000, 203.000000)">
                <path d="M1.03275401,30.9679144 L30.9679144,30.9679144 L30.9679144,1.03208556 L1.03275401,1.03208556 L1.03275401,30.9679144 Z M31.4832888,0 L0.516042781,0 C0.230614973,0 0,0.231283422 0,0.516042781 L0,31.4839572 C0,31.7687166 0.230614973,32 0.516042781,32 L31.4839572,32 C31.7687166,32 32,31.7687166 32,31.4839572 L32,0.516042781 C32,0.231283422 31.7687166,0 31.4832888,0 Z" id="Fill-1"></path>
                <path d="M5.04327261,25.9994819 L26.9560517,25.9994819 L26.9560517,12.9992229 L5.04327261,12.9992229 L5.04327261,25.9994819 Z M4.522312,27 L27.477688,27 C27.7655339,27 28,26.7759358 28,26.5000648 L28,12.4992877 C28,12.2240642 27.7662096,12 27.477688,12 L4.522312,12 C4.23379037,12 4,12.2234167 4,12.4992877 L4,26.5000648 C4,26.7759358 4.23379037,27 4.522312,27 Z" id="Fill-3"></path>
                <path d="M9.3192216,21.8832671 L10.9121771,18.1167329 L21.0875729,18.1167329 L22.6805284,21.8832671 L9.3192216,21.8832671 Z M21.8890642,17.3259848 C21.8048374,17.1279364 21.6210091,17 21.4198007,17 L10.5806177,17 C10.3787409,17 10.1949126,17.1279364 10.1113543,17.3259848 L8.04713001,22.2099747 C7.9735987,22.382725 7.98696803,22.5836646 8.08122179,22.7434044 C8.17681249,22.9031442 8.3399183,23 8.51639343,23 L23.484025,23 C23.6598317,23 23.823606,22.9031442 23.9185282,22.7434044 C24.012782,22.5836646 24.0261513,22.382725 23.9539569,22.2099747 L21.8890642,17.3259848 Z" id="Fill-4"></path>
                <path d="M24.9996149,4 C25.5517905,4 26,4.44743935 26,4.99961494 C26,5.55179053 25.5517905,6 24.9996149,6 C24.4474394,6 24,5.55179053 24,4.99961494 C24,4.44743935 24.4474394,4 24.9996149,4" id="Fill-5"></path>
                <path d="M21.0003851,4 C21.5525606,4 22,4.44743935 22,4.99961494 C22,5.55179053 21.5525606,6 21.0003851,6 C20.4474394,6 20,5.55179053 20,4.99961494 C20,4.44743935 20.4474394,4 21.0003851,4" id="Fill-6"></path>
                <path d="M17.9996149,4 C18.5525606,4 19,4.44743935 19,4.99961494 C19,5.55179053 18.5525606,6 17.9996149,6 C17.4474394,6 17,5.55179053 17,4.99961494 C17,4.44743935 17.4474394,4 17.9996149,4" id="Fill-7"></path>
                <path d="M13.9996149,4 C14.5517905,4 15,4.44743935 15,4.99961494 C15,5.55179053 14.5517905,6 13.9996149,6 C13.4474394,6 13,5.55179053 13,4.99961494 C13,4.44743935 13.4474394,4 13.9996149,4" id="Fill-8"></path>
                <path d="M6.48381032,5 L8.51556298,5 C8.78253604,5 9,4.77590674 9,4.5 C9,4.22409326 8.78316273,4 8.51556298,4 L6.48381032,4 C6.21683727,4 6,4.2234456 6,4.5 C6,4.77590674 6.21683727,5 6.48381032,5" id="Fill-9"></path>
                <path d="M4.52165099,9 L27.478349,9 C27.7655273,9 28,8.77605178 28,8.50032362 C28,8.22394822 27.7662031,8 27.478349,8 L4.52165099,8 C4.23312123,8 4,8.22394822 4,8.50032362 C4,8.77605178 4.23312123,9 4.52165099,9" id="Fill-10"></path>
            </g>
        </g>
    </g>
</svg>