<?xml version="1.0" encoding="UTF-8"?>
<svg width="27px" height="32px" viewBox="0 0 27 32" version="1.1" xmlns="http://www.w3.org/2000/svg" xmlns:xlink="http://www.w3.org/1999/xlink">
    <!-- Generator: Sketch 50.2 (55047) - http://www.bohemiancoding.com/sketch -->
    <title>nutrition</title>
    <desc>Created with Sketch.</desc>
    <defs>
        <polygon id="path-1" points="0 32 26.6889401 32 26.6889401 0 0 0"></polygon>
    </defs>
    <g id="Page-1" stroke="none" stroke-width="1" fill="none" fill-rule="evenodd">
        <g id="03_01productpage" transform="translate(-1043.000000, -203.000000)">
            <g id="nutrition" transform="translate(1043.000000, 203.000000)">
                <path d="M25.6625964,29.4195613 C25.6625964,30.2727226 24.9712502,30.9679484 24.1228498,30.9679484 L2.56639821,30.9679484 C1.71748462,30.9679484 1.02665167,30.2727226 1.02665167,29.4195613 L1.02665167,2.58085161 C1.02665167,1.72717419 1.71748462,1.03246452 2.56639821,1.03246452 L24.1228498,1.03246452 C24.9712502,1.03246452 25.6625964,1.72717419 25.6625964,2.58085161 L25.6625964,29.4195613 Z M24.1228498,0.000206451613 L2.56639821,0.000206451613 C1.15137114,0.000206451613 0.000153974654,1.15788387 0.000153974654,2.58085161 L0.000153974654,29.4195613 C0.000153974654,30.842529 1.15137114,32.0002065 2.56639821,32.0002065 L24.1228498,32.0002065 C25.5378769,32.0002065 26.6890941,30.842529 26.6890941,29.4195613 L26.6890941,2.58085161 C26.6890941,1.15788387 25.5378769,0.000206451613 24.1228498,0.000206451613 Z" id="Fill-1" fill="#A2A1A0"></path>
                <mask id="mask-2" fill="white">
                    <use xlink:href="#path-1"></use>
                </mask>
                <g id="Clip-5"></g>
                <polygon id="Fill-4" fill="#A2A1A0" mask="url(#mask-2)" points="3.07949309 27.3548387 15.9107143 27.3548387 15.9107143 26.3225806 3.07949309 26.3225806"></polygon>
                <polygon id="Fill-6" fill="#A2A1A0" mask="url(#mask-2)" points="20.0167051 27.3548387 23.0961982 27.3548387 23.0961982 26.3225806 20.0167051 26.3225806"></polygon>
                <polygon id="Fill-7" fill="#A2A1A0" mask="url(#mask-2)" points="3.07949309 29.4193548 15.9107143 29.4193548 15.9107143 28.3870968 3.07949309 28.3870968"></polygon>
                <polygon id="Fill-8" fill="#A2A1A0" mask="url(#mask-2)" points="20.0167051 29.4193548 23.0961982 29.4193548 23.0961982 28.3870968 20.0167051 28.3870968"></polygon>
                <path d="M9.19228687,8.64939355 C9.39348041,8.09145806 9.81999021,7.67803871 10.2706227,7.24087742 C10.7864378,6.73971613 11.3720547,6.17249032 11.6353514,5.3275871 C11.7446734,4.97661935 11.7831671,4.61584516 11.7569914,4.26849032 C11.8740121,4.37223226 11.9889798,4.48474839 12.1029211,4.60500645 C12.37289,4.89094194 12.5761365,5.15571613 12.7249787,5.41532903 C13.2053796,6.25352258 13.455845,7.59597419 13.3639735,8.8352 C13.2828802,9.93042581 12.7988865,10.863071 12.0700732,11.3296516 C11.6204672,11.6181677 10.9265547,11.7425548 10.3424775,11.6346839 C9.99654781,11.5717161 9.7127212,11.4333935 9.52333237,11.2357161 C8.94849366,10.6344258 8.90332776,9.44887742 9.19228687,8.64939355 M10.1597609,12.6509419 C10.3573618,12.6865548 10.562148,12.7041032 10.7689873,12.7041032 C11.4336446,12.7041032 12.1157523,12.5244903 12.6213024,12.2008774 C13.6221377,11.5603613 14.2821757,10.3304258 14.3868785,8.91210323 C14.4715645,7.77300645 14.3129706,6.12087742 13.6139257,4.90023226 C13.4240236,4.56887742 13.1730449,4.2395871 12.8466187,3.89429677 C12.2199418,3.23107097 11.5332149,2.76449032 10.7479441,2.46823226 C10.5087702,2.37842581 10.2413675,2.47907097 10.1181878,2.70255484 C9.99500806,2.9275871 10.0550582,3.20887742 10.2583047,3.3632 C10.7428116,3.73171613 10.8249315,4.47442581 10.6555593,5.01790968 C10.4702765,5.61094194 10.0268295,6.04139355 9.5572068,6.49713548 C9.0424182,6.99726452 8.50915265,7.51390968 8.22686578,8.29584516 C7.82653168,9.40500645 7.88914804,11.0158452 8.78322753,11.9505548 C9.12453802,12.3072 9.6003197,12.5487484 10.1597609,12.6509419" id="Fill-9" fill="#A2A1A0" mask="url(#mask-2)"></path>
                <path d="M16.9478876,9.00020645 C17.0038317,8.86343226 17.0582361,8.73181935 17.1049417,8.6064 C17.2363334,8.25130323 17.4000598,7.80846452 17.4236692,7.33930323 C17.4241825,7.3300129 17.4262355,7.28975484 17.4257222,7.22781935 C17.6351278,7.36304516 17.8260563,7.52717419 17.9918357,7.71607742 C18.660599,8.47994839 18.9983167,9.92510968 18.4311767,10.642529 C18.1714728,10.9707871 17.6346145,11.1049806 17.1824423,10.9537548 C17.0125569,10.8974968 16.7862142,10.7741419 16.6681669,10.5114323 C16.4900696,10.1124645 16.7333495,9.52149677 16.9478876,9.00020645 M16.8590955,11.9338839 C17.093137,12.0118194 17.3353904,12.0494968 17.5745644,12.0494968 C18.2207447,12.0494968 18.8458818,11.7346581 19.2333847,11.2453677 C20.2398657,9.97259355 19.6070298,7.91788387 18.761709,6.95272258 C18.2274169,6.34162581 17.4960373,6.19349677 16.7025546,5.67736774 L16.9371093,5.67736774 L16.9371093,5.75891613 C16.4238605,5.70007742 16.2714256,5.9664 16.2154815,6.24562581 C16.1723685,6.46498065 16.2149682,6.67917419 16.3946053,6.78859355 C16.4346387,6.90833548 16.4346387,7.15504516 16.4284797,7.28717419 C16.412569,7.59788387 16.2760448,7.92717419 16.1574843,8.24665806 C16.1153979,8.36123871 16.0589406,8.48098065 16.0071024,8.60536774 C15.727895,9.28407742 15.3768328,10.1279484 15.7350805,10.9325935 C15.9449993,11.4064 16.3422539,11.7614968 16.8590955,11.9338839" id="Fill-10" fill="#A2A1A0" mask="url(#mask-2)"></path>
                <path d="M5.64573733,23.2258065 L20.5299539,23.2258065 L20.5299539,14.9677419 L5.64573733,14.9677419 L5.64573733,23.2258065 Z M5.13248848,24.2580645 L21.0432028,24.2580645 C21.3265161,24.2580645 21.5564516,24.0273548 21.5564516,23.7419355 L21.5564516,14.4516129 C21.5564516,14.1661935 21.3265161,13.9354839 21.0432028,13.9354839 L5.13248848,13.9354839 C4.84917512,13.9354839 4.61923963,14.1661935 4.61923963,14.4516129 L4.61923963,23.7419355 C4.61923963,24.0273548 4.84917512,24.2580645 5.13248848,24.2580645 Z" id="Fill-11" fill="#A2A1A0" mask="url(#mask-2)"></path>
            </g>
        </g>
    </g>
</svg>