<?xml version="1.0" encoding="UTF-8"?>
<svg width="33px" height="32px" viewBox="0 0 33 32" version="1.1" xmlns="http://www.w3.org/2000/svg" xmlns:xlink="http://www.w3.org/1999/xlink">
    <!-- Generator: Sketch 50.2 (55047) - http://www.bohemiancoding.com/sketch -->
    <title>calendar</title>
    <desc>Created with Sketch.</desc>
    <defs></defs>
    <g id="Page-1" stroke="none" stroke-width="1" fill="none" fill-rule="evenodd">
        <g id="03_01productpage" transform="translate(-918.000000, -202.000000)" fill="#A2A1A0">
            <g id="calendar" transform="translate(918.000000, 202.000000)">
                <path d="M31.6820348,9.75784036 L1.29021861,9.75784036 L1.29021861,6.30671928 C1.29021861,5.07981345 2.27221833,4.08967892 3.49792601,4.08967892 L7.23955998,4.08967892 L7.23955998,6.31389417 C7.23955998,6.67263857 7.52627522,6.95963408 7.88466928,6.95963408 C8.24306334,6.95963408 8.52977859,6.67263857 8.52977859,6.31389417 L8.52977859,4.08967892 L24.4424748,4.08967892 L24.4424748,6.31389417 C24.4424748,6.67263857 24.72919,6.95963408 25.0875841,6.95963408 C25.4459781,6.95963408 25.7326934,6.67263857 25.7326934,6.31389417 L25.7326934,4.08967892 L29.4743274,4.08967892 C30.700035,4.08967892 31.6820348,5.07981345 31.6820348,6.30671928 L31.6820348,9.75784036 Z M31.6820348,28.4986475 C31.6820348,29.7255534 30.700035,30.708513 29.4743274,30.708513 L3.49792601,30.708513 C2.27221833,30.708513 1.29021861,29.7183785 1.29021861,28.4986475 L1.29021861,11.0493202 L31.6820348,11.0493202 L31.6820348,28.4986475 Z M29.4743274,2.7981991 L25.7326934,2.7981991 L25.7326934,0.645732735 C25.7326934,0.286988341 25.4459781,-7.17488787e-06 25.0875841,-7.17488787e-06 C24.72919,-7.17488787e-06 24.4424748,0.286988341 24.4424748,0.645732735 L24.4424748,2.7981991 L8.52977859,2.7981991 L8.52977859,0.645732735 C8.52977859,0.286988341 8.24306334,-7.17488787e-06 7.88466928,-7.17488787e-06 C7.52627522,-7.17488787e-06 7.23955998,0.286988341 7.23955998,0.645732735 L7.23955998,2.7981991 L3.49792601,2.7981991 C1.56259809,2.7981991 0,4.36949955 0,6.30671928 L0,28.4914726 C0,30.4286924 1.56259809,31.9928179 3.49792601,31.9928179 L29.4743274,31.9928179 C31.4096553,31.9928179 32.9722534,30.4286924 32.9722534,28.4914726 L32.9722534,6.30671928 C32.9722534,4.36949955 31.4096553,2.7981991 29.4743274,2.7981991 Z" id="Fill-1"></path>
                <path d="M6.23605661,18.0089686 L9.38992433,18.0089686 L9.38992433,14.9237668 L6.23605661,14.9237668 L6.23605661,18.0089686 Z M5.59094731,19.3004484 L10.1067124,19.3004484 C10.4651065,19.3004484 10.7518217,19.0134529 10.7518217,18.6547085 L10.7518217,14.2780269 C10.7518217,13.9192825 10.4651065,13.632287 10.1067124,13.632287 L5.59094731,13.632287 C5.23255325,13.632287 4.945838,13.9192825 4.945838,14.2780269 L4.945838,18.6547085 C4.945838,19.0134529 5.23255325,19.3004484 5.59094731,19.3004484 Z" id="Fill-4"></path>
                <path d="M14.7658352,18.0089686 L17.9913817,18.0089686 L17.9913817,14.9237668 L14.7658352,14.9237668 L14.7658352,18.0089686 Z M14.1207259,19.3004484 L18.636491,19.3004484 C18.9948851,19.3004484 19.2816003,19.0134529 19.2816003,18.6547085 L19.2816003,14.2780269 C19.2816003,13.9192825 18.9948851,13.632287 18.636491,13.632287 L14.1207259,13.632287 C13.7623318,13.632287 13.4756166,13.9192825 13.4756166,14.2780269 L13.4756166,18.6547085 C13.4756166,19.0134529 13.7623318,19.3004484 14.1207259,19.3004484 Z" id="Fill-6"></path>
                <path d="M23.582329,18.0089686 L26.7361967,18.0089686 L26.7361967,14.9237668 L23.582329,14.9237668 L23.582329,18.0089686 Z M22.9372197,19.3004484 L27.4529849,19.3004484 C27.8113789,19.3004484 28.0980942,19.0134529 28.0980942,18.6547085 L28.0980942,14.2780269 C28.0980942,13.9192825 27.8113789,13.632287 27.4529849,13.632287 L22.9372197,13.632287 C22.5788257,13.632287 22.2921104,13.9192825 22.2921104,14.2780269 L22.2921104,18.6547085 C22.2921104,19.0134529 22.5788257,19.3004484 22.9372197,19.3004484 Z" id="Fill-7"></path>
                <path d="M6.23605661,26.1883408 L9.38992433,26.1883408 L9.38992433,23.103139 L6.23605661,23.103139 L6.23605661,26.1883408 Z M5.59094731,27.4798206 L10.1067124,27.4798206 C10.4651065,27.4798206 10.7518217,27.1928251 10.7518217,26.8340807 L10.7518217,22.4573991 C10.7518217,22.0986547 10.4651065,21.8116592 10.1067124,21.8116592 L5.59094731,21.8116592 C5.23255325,21.8116592 4.945838,22.0986547 4.945838,22.4573991 L4.945838,26.8340807 C4.945838,27.1928251 5.23255325,27.4798206 5.59094731,27.4798206 Z" id="Fill-8"></path>
                <path d="M14.7658352,26.1883408 L17.9913817,26.1883408 L17.9913817,23.103139 L14.7658352,23.103139 L14.7658352,26.1883408 Z M14.1207259,27.4798206 L18.636491,27.4798206 C18.9948851,27.4798206 19.2816003,27.1928251 19.2816003,26.8340807 L19.2816003,22.4573991 C19.2816003,22.0986547 18.9948851,21.8116592 18.636491,21.8116592 L14.1207259,21.8116592 C13.7623318,21.8116592 13.4756166,22.0986547 13.4756166,22.4573991 L13.4756166,26.8340807 C13.4756166,27.1928251 13.7623318,27.4798206 14.1207259,27.4798206 Z" id="Fill-9"></path>
                <path d="M23.582329,26.1883408 L26.7361967,26.1883408 L26.7361967,23.103139 L23.582329,23.103139 L23.582329,26.1883408 Z M22.9372197,27.4798206 L27.4529849,27.4798206 C27.8113789,27.4798206 28.0980942,27.1928251 28.0980942,26.8340807 L28.0980942,22.4573991 C28.0980942,22.0986547 27.8113789,21.8116592 27.4529849,21.8116592 L22.9372197,21.8116592 C22.5788257,21.8116592 22.2921104,22.0986547 22.2921104,22.4573991 L22.2921104,26.8340807 C22.2921104,27.1928251 22.5788257,27.4798206 22.9372197,27.4798206 Z" id="Fill-10"></path>
            </g>
        </g>
    </g>
</svg>